<svg width="60" height="48" fill="none" xmlns="http://www.w3.org/2000/svg"><path d="M22.875 36h-3.75c-.656 0-1.125.563-1.125 1.125v3.75c0 .656.469 1.125 1.125 1.125h3.75c.563 0 1.125-.469 1.125-1.125v-3.75c0-.563-.563-1.125-1.125-1.125zm0-18h-3.75c-.656 0-1.125.563-1.125 1.125v3.75c0 .656.469 1.125 1.125 1.125h3.75c.563 0 1.125-.469 1.125-1.125v-3.75c0-.563-.563-1.125-1.125-1.125zm-9 0h-3.75C9.469 18 9 18.563 9 19.125v3.75C9 23.531 9.469 24 10.125 24h3.75c.563 0 1.125-.469 1.125-1.125v-3.75c0-.563-.563-1.125-1.125-1.125zm0 18h-3.75C9.469 36 9 36.563 9 37.125v3.75C9 41.531 9.469 42 10.125 42h3.75c.563 0 1.125-.469 1.125-1.125v-3.75c0-.563-.563-1.125-1.125-1.125zm0-9h-3.75C9.469 27 9 27.563 9 28.125v3.75C9 32.531 9.469 33 10.125 33h3.75c.563 0 1.125-.469 1.125-1.125v-3.75c0-.563-.563-1.125-1.125-1.125zm9 0h-3.75c-.656 0-1.125.563-1.125 1.125v3.75c0 .656.469 1.125 1.125 1.125h3.75c.563 0 1.125-.469 1.125-1.125v-3.75c0-.563-.563-1.125-1.125-1.125zm27 9h-3.75c-.656 0-1.125.563-1.125 1.125v3.75c0 .656.469 1.125 1.125 1.125h3.75c.563 0 1.125-.469 1.125-1.125v-3.75c0-.563-.563-1.125-1.125-1.125zm0-9h-3.75c-.656 0-1.125.563-1.125 1.125v3.75c0 .656.469 1.125 1.125 1.125h3.75c.563 0 1.125-.469 1.125-1.125v-3.75c0-.563-.563-1.125-1.125-1.125zm7.875-9H48V2.25C48 1.031 46.969 0 45.75 0h-19.5C24.937 0 24 1.031 24 2.25V9h-3V1.5c0-.75-.75-1.5-1.5-1.5H18c-.844 0-1.5.75-1.5 1.5V9h-6V1.5C10.5.75 9.75 0 9 0H7.5C6.656 0 6 .75 6 1.5V9H2.25C.937 9 0 10.031 0 11.25V46.5c0 .844.656 1.5 1.5 1.5H3c.75 0 1.5-.656 1.5-1.5v-33h24v-9h15v18h12v24c0 .844.656 1.5 1.5 1.5h1.5c.75 0 1.5-.656 1.5-1.5V20.25c0-1.219-1.031-2.25-2.25-2.25zM37.875 9h-3.75C33.469 9 33 9.563 33 10.125v3.75c0 .656.469 1.125 1.125 1.125h3.75c.563 0 1.125-.469 1.125-1.125v-3.75C39 9.562 38.437 9 37.875 9zm0 18h-3.75c-.656 0-1.125.563-1.125 1.125v3.75c0 .656.469 1.125 1.125 1.125h3.75c.563 0 1.125-.469 1.125-1.125v-3.75c0-.563-.563-1.125-1.125-1.125zm0-9h-3.75c-.656 0-1.125.563-1.125 1.125v3.75c0 .656.469 1.125 1.125 1.125h3.75c.563 0 1.125-.469 1.125-1.125v-3.75c0-.563-.563-1.125-1.125-1.125z" fill="#F7654A"/></svg>