<svg width="47" height="48" fill="none" xmlns="http://www.w3.org/2000/svg"><path d="M23.5.75C10.656.75.25 11.156.25 24S10.656 47.25 23.5 47.25 46.75 36.844 46.75 24 36.344.75 23.5.75zm0 42A18.685 18.685 0 014.75 24c0-10.313 8.344-18.75 18.75-18.75 10.313 0 18.75 8.438 18.75 18.75 0 10.406-8.438 18.75-18.75 18.75zM29.219 33c.562.375 1.218.281 1.593-.281l1.782-2.344c.375-.563.281-1.219-.282-1.594l-6.187-4.593V10.874c0-.563-.563-1.125-1.125-1.125h-3c-.656 0-1.125.563-1.125 1.125v15.469c0 .281.094.656.375.843L29.219 33z" fill="#F7654A"/></svg>