<svg width="60" height="60" fill="none" xmlns="http://www.w3.org/2000/svg"><path d="M54.045 5.955C50.182 2.125 45.097 0 39.657 0c-5.44 0-10.526 2.124-14.389 5.955a20.279 20.279 0 00-5.665 10.88c-.064.418-.129.837-.161 1.255l-.096 1.256c-.033.321-.033.675-.033.997V40.72h17.608c.032-.354.032-.676.032-1.03v-2.736H23.079V20.376c0-.355 0-.676.033-1.03.032-.419.064-.837.128-1.256.065-.418.13-.837.226-1.255.676-3.155 2.285-5.987 4.474-8.208a16.545 16.545 0 0111.717-4.86c9.141 0 16.577 7.435 16.577 16.576 0 4.571-1.867 8.724-4.86 11.717a16.49 16.49 0 01-8.209 4.474v3.863a20.28 20.28 0 0010.88-5.665A20.234 20.234 0 0060 20.343a20.23 20.23 0 00-5.955-14.388z" fill="#F7654A"/><path d="M23.08 23.08h13.873v16.609c0 .354 0 .676-.032 1.03-.033.418-.065.837-.13 1.255-.063.419-.128.837-.224 1.256-.676 3.154-2.286 5.987-4.475 8.208a16.545 16.545 0 01-11.716 4.86c-9.142 0-16.578-7.435-16.578-16.577a16.55 16.55 0 014.86-11.717 16.491 16.491 0 018.209-4.474v-3.862a20.278 20.278 0 00-10.88 5.665C2.124 29.099 0 34.217 0 39.657c0 5.44 2.124 10.525 5.955 14.388A20.234 20.234 0 0020.343 60c5.44 0 10.526-2.124 14.389-5.955 3.605-3.605 5.697-8.337 5.922-13.39 0-.161 0-.322.033-.483V19.313H23.079c-.032.354-.032.676-.032 1.03l.032 2.736z" fill="#F7654A"/></svg>