<svg width="49" height="48" fill="none" xmlns="http://www.w3.org/2000/svg"><path d="M45.125 2.156L36.312.187C34.25-.28 32.188.75 31.439 2.626l-4.125 9.563c-.75 1.687-.282 3.75 1.218 4.968l3.75 3.094c-2.625 4.875-6.75 8.906-11.625 11.625l-3.093-3.75c-1.22-1.5-3.282-1.969-4.97-1.219l-9.562 4.032C1.156 31.78.125 33.843.594 35.906l1.969 8.813C3.03 46.687 4.813 48 6.78 48 29.75 48 48.5 29.437 48.5 6.375c0-1.969-1.406-3.75-3.375-4.219zM6.969 43.5L5 35.062l9.188-3.937 5.25 6.375c9.28-4.406 14.062-9.188 18.468-18.469l-6.375-5.25 3.938-9.187L44 6.562C43.906 26.907 27.312 43.407 6.969 43.5z" fill="#F7654A"/></svg>