<svg width="49" height="36" fill="none" xmlns="http://www.w3.org/2000/svg"><path d="M44 0H5C2.469 0 .5 2.063.5 4.5v27C.5 34.031 2.469 36 5 36h39c2.438 0 4.5-1.969 4.5-4.5v-27C48.5 2.062 46.437 0 44 0zm0 4.5v3.844c-2.156 1.781-5.531 4.406-12.656 10.031-1.594 1.219-4.688 4.219-6.844 4.125-2.25.094-5.344-2.906-6.938-4.125C10.438 12.75 7.063 10.125 5 8.344V4.5h39zm-39 27V14.156c2.063 1.688 5.156 4.125 9.75 7.781 2.063 1.594 5.719 5.157 9.75 5.063 3.938.094 7.5-3.469 9.656-5.063A1543.15 1543.15 0 0144 14.157V31.5H5z" fill="#F7654A"/></svg>